<svg width="85" height="85" viewBox="0 0 85 85" fill="none" xmlns="http://www.w3.org/2000/svg">
<path d="M3 71.5L10.9764 68.3664C14.8701 66.8367 19.1751 66.7111 23.1514 68.011L41.2603 73.9313C42.365 74.2924 43.5722 74.1552 44.5677 73.5554L78.0074 53.4058C80.1069 52.1407 80.585 49.302 79.0158 47.419L78.8515 47.2218C77.7464 45.8957 75.9155 45.4281 74.3099 46.0619L58 52.5M33 59H53.3042C54.6718 59 55.9446 58.3013 56.6789 57.1475L57.3787 56.0478C58.3382 54.54 58.181 52.5786 56.9937 51.2429L56.1934 50.3425C55.4343 49.4886 54.3463 49 53.2037 49H40.1886C39.7329 49 39.2805 48.9221 38.851 48.7697L29.1679 45.3338C25.799 44.1384 22.1506 43.9731 18.6875 44.859L2.5 49" stroke="#D36C1C" stroke-width="1.8" stroke-linecap="round"/>
<path d="M81 13L73.0236 16.1336C69.1299 17.6633 64.8249 17.7889 60.8486 16.489L42.7397 10.5687C41.635 10.2076 40.4278 10.3448 39.4323 10.9446L5.99263 31.0942C3.89312 32.3593 3.41496 35.198 4.98418 37.081L5.14854 37.2782C6.25356 38.6043 8.08454 39.0719 9.69009 38.4381L26 32M51 25.5H30.6958C29.3282 25.5 28.0554 26.1987 27.3211 27.3525L26.6213 28.4522C25.6618 29.96 25.819 31.9214 27.0063 33.2571L27.8066 34.1575C28.5657 35.0114 29.6537 35.5 30.7963 35.5H43.8114C44.2671 35.5 44.7195 35.5779 45.149 35.7303L54.8321 39.1662C58.201 40.3616 61.8494 40.5269 65.3125 39.641L81.5 35.5" stroke="#D36C1C" stroke-width="1.8" stroke-linecap="round"/>
</svg>
