<svg width="85" height="85" viewBox="0 0 85 85" fill="none" xmlns="http://www.w3.org/2000/svg">
<path d="M5 54L9.6875 51C12.5449 49.1712 16.2051 49.1712 19.0625 51V51C21.9199 52.8288 25.5801 52.8288 28.4375 51V51C31.2949 49.1712 34.9551 49.1712 37.8125 51V51C40.6699 52.8288 44.33 52.8288 47.1875 51V51C50.0449 49.1712 53.705 49.1712 56.5625 51V51C59.4199 52.8288 63.08 52.8288 65.9375 51V51C68.7949 49.1712 72.455 49.1712 75.3125 51L80 54" stroke="#D36C1C" stroke-width="1.8" stroke-linecap="round"/>
<path d="M5 41L9.6875 38C12.5449 36.1712 16.2051 36.1712 19.0625 38V38C21.9199 39.8288 25.5801 39.8288 28.4375 38V38C31.2949 36.1712 34.9551 36.1712 37.8125 38V38C40.6699 39.8288 44.33 39.8288 47.1875 38V38C50.0449 36.1712 53.705 36.1712 56.5625 38V38C59.4199 39.8288 63.08 39.8288 65.9375 38V38C68.7949 36.1712 72.455 36.1712 75.3125 38L80 41" stroke="#D36C1C" stroke-width="1.8" stroke-linecap="round"/>
<path d="M5 28L9.6875 25C12.5449 23.1712 16.2051 23.1712 19.0625 25V25C21.9199 26.8288 25.5801 26.8288 28.4375 25V25C31.2949 23.1712 34.9551 23.1712 37.8125 25V25C40.6699 26.8288 44.33 26.8288 47.1875 25V25C50.0449 23.1712 53.705 23.1712 56.5625 25V25C59.4199 26.8288 63.08 26.8288 65.9375 25V25C68.7949 23.1712 72.455 23.1712 75.3125 25L80 28" stroke="#D36C1C" stroke-width="1.8" stroke-linecap="round"/>
</svg>
