<svg width="85" height="85" viewBox="0 0 85 85" fill="none" xmlns="http://www.w3.org/2000/svg">
<path d="M33.3273 25.5107L27.3578 21.0336C26.6986 20.5392 26.4667 19.656 26.7979 18.9016L29.693 12.3072C30.0078 11.5903 29.8152 10.7517 29.2191 10.244L24.2371 6M31.1102 29.945L21.9995 31.9695C21.4541 32.0907 20.9977 32.4618 20.7678 32.971L18.3139 38.4045C18.1308 38.8101 17.8019 39.132 17.3925 39.3063L6.05664 44.1346" stroke="#D36C1C" stroke-width="1.8" stroke-linecap="round"/>
<path d="M52.173 25.5107L58.1424 21.0336C58.8016 20.5392 59.0335 19.656 58.7023 18.9016L55.8072 12.3072C55.4924 11.5903 55.685 10.7517 56.2811 10.244L61.2632 6M54.3901 29.945L63.5007 31.9695C64.0461 32.0907 64.5025 32.4618 64.7325 32.971L67.1863 38.4045C67.3695 38.8101 67.6984 39.132 68.1078 39.3063L79.4436 44.1346" stroke="#D36C1C" stroke-width="1.8" stroke-linecap="round"/>
<path d="M40.8706 10.9957C41.9343 10.2582 43.344 10.2582 44.4078 10.9957L51.1116 15.6438C53.6115 17.377 52.385 21.2986 49.3431 21.2986H35.9353C32.8934 21.2986 31.6669 17.377 34.1667 15.6438L40.8706 10.9957Z" stroke="#D36C1C" stroke-width="1.8"/>
<path d="M48.1819 13.7598C47.0733 14.1293 45.2996 14.6466 44.8562 16.642C44.3143 19.0809 45.1518 20.1894 45.2996 21.0763" stroke="#D36C1C" stroke-width="1.8" stroke-linecap="round"/>
<path d="M37.0964 13.7598C38.205 14.1293 39.9787 14.6466 40.4221 16.642C40.9641 19.0809 40.1265 20.1894 39.9787 21.0763" stroke="#D36C1C" stroke-width="1.8" stroke-linecap="round"/>
<path d="M13.4909 57.6691C19.0914 45.593 28.4624 35.4021 32.6152 31.6547C32.7272 31.5536 32.8218 31.4321 32.925 31.3221C35.2433 28.851 40.8827 44.2256 39.6529 47.9137C32.3789 69.7297 20.9552 74.2975 16.1514 73.8541C12.8996 73.5585 7.81503 69.9076 13.4909 57.6691Z" stroke="#D36C1C" stroke-width="1.8" stroke-linecap="round"/>
<path d="M71.4134 57.6691C65.8129 45.593 56.4419 35.4021 52.2891 31.6547C52.1771 31.5536 52.0825 31.4321 51.9793 31.3221C49.661 28.851 44.0216 44.2256 45.2513 47.9137C52.5254 69.7297 63.9491 74.2975 68.7529 73.8541C72.0047 73.5585 77.0893 69.9076 71.4134 57.6691Z" stroke="#D36C1C" stroke-width="1.8" stroke-linecap="round"/>
<path d="M31.6192 64.2623L30.899 63.7227L30.7715 63.8928L30.7336 64.102L31.6192 64.2623ZM53.157 63.9498L54.0406 63.7787L54.0022 63.5803L53.8826 63.4174L53.157 63.9498ZM45.6432 49.0508L46.4928 48.7536L46.0739 47.5563L45.0821 48.3471L45.6432 49.0508ZM39.3276 49.1569L39.8739 48.4417L38.8892 47.6895L38.4785 48.8586L39.3276 49.1569ZM30.7336 64.102C30.5399 65.1726 30.4318 66.1546 30.4318 66.9716H32.2318C32.2318 66.2982 32.3225 65.4302 32.5049 64.4226L30.7336 64.102ZM30.4318 66.9716C30.4318 69.8673 31.7846 72.9566 33.9104 75.3134C36.0417 77.6763 39.0406 79.4006 42.4174 79.4006V77.6006C39.6718 77.6006 37.1279 76.1931 35.247 74.1078C33.3606 72.0164 32.2318 69.3412 32.2318 66.9716H30.4318ZM42.4174 79.4006C45.7942 79.4006 48.7932 77.6763 50.9244 75.3134C53.0502 72.9566 54.403 69.8673 54.403 66.9716H52.603C52.603 69.3412 51.4742 72.0164 49.5878 74.1078C47.7069 76.1931 45.163 77.6006 42.4174 77.6006V79.4006ZM54.403 66.9716C54.403 66.0747 54.2727 64.9771 54.0406 63.7787L52.2735 64.1209C52.4931 65.2551 52.603 66.2303 52.603 66.9716H54.403ZM44.7937 49.348C47.0605 55.828 49.7029 60.7638 52.4314 64.4823L53.8826 63.4174C51.2753 59.8641 48.7102 55.0925 46.4928 48.7536L44.7937 49.348ZM45.0821 48.3471C44.1638 49.0794 43.2729 49.4431 42.4174 49.4431V51.2431C43.8059 51.2431 45.0813 50.65 46.2043 49.7545L45.0821 48.3471ZM42.4174 49.4431C41.5997 49.4431 40.7502 49.1111 39.8739 48.4417L38.7812 49.8721C39.8665 50.7012 41.0905 51.2431 42.4174 51.2431V49.4431ZM38.4785 48.8586C36.2052 55.3282 33.5696 60.1582 30.899 63.7227L32.3395 64.8019C35.1368 61.0683 37.8526 56.0695 40.1767 49.4553L38.4785 48.8586Z" fill="#D36C1C"/>
<path d="M53.3587 32.6532L52.7346 33.3017L54.0062 34.5252L54.25 32.7775L53.3587 32.6532ZM31.4973 32.8003L30.6068 32.9313L30.8624 34.6692L32.1237 33.4465L31.4973 32.8003ZM32.7191 31.6544L33.322 32.3226L33.322 32.3225L32.7191 31.6544ZM32.9238 31.4388L32.3477 30.7474L32.294 30.792L32.248 30.8444L32.9238 31.4388ZM32.9238 31.4387L33.5 32.1301L33.564 32.0768L33.6172 32.0126L32.9238 31.4387ZM32.9239 31.4387L32.2465 30.8461L32.2384 30.8554L32.2305 30.8649L32.9239 31.4387ZM32.9239 31.4386L32.2481 30.8443L32.2466 30.846L32.9239 31.4386ZM33.0289 31.3218L33.6853 31.9375L33.6853 31.9375L33.0289 31.3218ZM39.7569 47.9134L38.9031 47.6288L39.7569 47.9134ZM39.3305 49.1592L38.4814 48.8609L38.2646 49.4779L38.7845 49.8747L39.3305 49.1592ZM45.6404 49.053L46.2013 49.757L46.7009 49.3589L46.49 48.756L45.6404 49.053ZM45.2512 47.9132L46.105 47.6286L45.2512 47.9132ZM51.9791 31.3216L51.3228 31.9373L51.3228 31.9374L51.9791 31.3216ZM52.0841 31.4383L51.4082 32.0326L51.4131 32.0382L51.4181 32.0437L52.0841 31.4383ZM52.0841 31.4384L52.7612 30.8454L52.7557 30.8392L52.7501 30.833L52.0841 31.4384ZM52.0843 31.4386L51.4072 32.0316L51.4084 32.0329L52.0843 31.4386ZM52.289 31.6542L51.6861 32.3224L52.289 31.6542ZM52.603 30.8325C52.603 31.3048 52.5583 31.8762 52.4673 32.5288L54.25 32.7775C54.349 32.0683 54.403 31.4106 54.403 30.8325H52.603ZM42.4174 22.1988C48.1749 22.1988 52.603 26.1868 52.603 30.8325H54.403C54.403 24.9475 48.9047 20.3988 42.4174 20.3988V22.1988ZM32.2318 30.8325C32.2318 26.1868 36.6599 22.1988 42.4174 22.1988V20.3988C35.9301 20.3988 30.4318 24.9475 30.4318 30.8325H32.2318ZM32.3877 32.6694C32.2832 31.9588 32.2318 31.339 32.2318 30.8325H30.4318C30.4318 31.4515 30.4938 32.1626 30.6068 32.9313L32.3877 32.6694ZM32.1237 33.4465C32.5611 33.0225 32.9626 32.6469 33.322 32.3226L32.1161 30.9862C31.7389 31.3266 31.3217 31.7171 30.8708 32.1541L32.1237 33.4465ZM33.322 32.3225C33.4404 32.2157 33.54 32.1009 33.5997 32.0331L32.248 30.8444C32.1763 30.926 32.1443 30.9608 32.1161 30.9862L33.322 32.3225ZM33.5 32.1302L33.5 32.1301L32.3477 30.7473L32.3477 30.7474L33.5 32.1302ZM33.6172 32.0126L33.6172 32.0125L32.2305 30.8649L32.2305 30.8649L33.6172 32.0126ZM33.6012 32.0314L33.6012 32.0313L32.2466 30.846L32.2465 30.8461L33.6012 32.0314ZM33.5998 32.033C33.6361 31.9916 33.6612 31.9632 33.6853 31.9375L32.3726 30.706C32.3253 30.7564 32.2811 30.8067 32.2481 30.8443L33.5998 32.033ZM33.6853 31.9375C33.7141 31.9068 33.6905 31.943 33.6179 31.9526C33.5566 31.9607 33.55 31.9373 33.6242 31.9752C33.8031 32.0667 34.1064 32.3355 34.5027 32.8816C35.2709 33.9404 36.1216 35.662 36.884 37.6326C37.6416 39.5907 38.2881 41.7324 38.6686 43.5975C38.8589 44.5303 38.9793 45.3776 39.0172 46.0882C39.0561 46.8174 39.0035 47.3275 38.9031 47.6288L40.6107 48.1981C40.8176 47.5774 40.8578 46.8002 40.8146 45.9923C40.7705 45.1659 40.6339 44.2262 40.4323 43.2376C40.0288 41.2599 39.3511 39.0209 38.5628 36.9831C37.7792 34.958 36.8623 33.0687 35.9596 31.8245C35.5204 31.2192 35.0124 30.6634 34.4439 30.3727C34.1444 30.2195 33.7802 30.1155 33.3822 30.1681C32.9729 30.2221 32.6335 30.4278 32.3726 30.706L33.6853 31.9375ZM38.9031 47.6288C38.764 48.0459 38.6234 48.4566 38.4814 48.8609L40.1796 49.4575C40.3249 49.044 40.4686 48.6243 40.6107 48.1981L38.9031 47.6288ZM42.4174 49.4432C41.6005 49.4432 40.7519 49.1118 39.8765 48.4438L38.7845 49.8747C39.8689 50.7023 41.0919 51.2432 42.4174 51.2432V49.4432ZM45.0796 48.3491C44.1621 49.0801 43.2722 49.4432 42.4174 49.4432V51.2432C43.8047 51.2432 45.0789 50.6511 46.2013 49.757L45.0796 48.3491ZM44.3974 48.1979C44.5273 48.5873 44.6584 48.9714 44.7909 49.3501L46.49 48.756C46.3605 48.3855 46.2321 48.0097 46.105 47.6286L44.3974 48.1979ZM52.6355 30.7058C52.3745 30.4276 52.0352 30.222 51.6259 30.1679C51.2279 30.1153 50.8637 30.2193 50.5642 30.3725C49.9957 30.6632 49.4877 31.219 49.0485 31.8243C48.1458 33.0685 47.2288 34.9578 46.4453 36.9829C45.657 39.0207 44.9793 41.2597 44.5758 43.2375C44.3742 44.226 44.2376 45.1657 44.1934 45.9921C44.1503 46.8 44.1905 47.5772 44.3974 48.1979L46.105 47.6286C46.0046 47.3273 45.9519 46.8172 45.9909 46.0881C46.0288 45.3774 46.1492 44.5301 46.3395 43.5973C46.72 41.7322 47.3665 39.5905 48.1241 37.6324C48.8865 35.6618 49.7372 33.9402 50.5054 32.8814C50.9017 32.3353 51.205 32.0665 51.3838 31.975C51.458 31.9371 51.4515 31.9605 51.3902 31.9524C51.3176 31.9428 51.294 31.9066 51.3228 31.9373L52.6355 30.7058ZM52.7599 30.844C52.7269 30.8065 52.6827 30.7561 52.6355 30.7058L51.3228 31.9374C51.3468 31.963 51.3719 31.9913 51.4082 32.0326L52.7599 30.844ZM52.7501 30.833L52.75 30.8329L51.4181 32.0437L51.4182 32.0438L52.7501 30.833ZM52.7613 30.8456L52.7612 30.8454L51.4071 32.0314L51.4072 32.0316L52.7613 30.8456ZM52.8919 30.986C52.8638 30.9606 52.8318 30.9257 52.7601 30.8443L51.4084 32.0329C51.468 32.1007 51.5677 32.2155 51.6861 32.3224L52.8919 30.986ZM53.9827 32.0047C53.5908 31.6275 53.2257 31.2872 52.8919 30.986L51.6861 32.3224C52.004 32.6093 52.355 32.9364 52.7346 33.3017L53.9827 32.0047Z" fill="#D36C1C"/>
</svg>
