<svg width="85" height="85" viewBox="0 0 85 85" fill="none" xmlns="http://www.w3.org/2000/svg">
<path d="M19 36.5V60.5C19 63.2614 21.2386 65.5 24 65.5H31.625C34.3864 65.5 36.625 63.2614 36.625 60.5V53.5C36.625 50.7386 38.8636 48.5 41.625 48.5H42.5H43.375C46.1364 48.5 48.375 50.7386 48.375 53.5V60.5C48.375 63.2614 50.6136 65.5 53.375 65.5H61C63.7614 65.5 66 63.2614 66 60.5V36.5" stroke="#D36C1C" stroke-width="1.8" stroke-linecap="round"/>
<path d="M65.5 21.5L77.5181 32.2305C78.5941 33.1911 78.6412 34.8588 77.6213 35.8787V35.8787C76.7031 36.7969 75.2362 36.8635 74.2386 36.0321L45.9867 12.4889C44.2299 11.0249 41.7037 10.9394 39.8519 12.2813L10.4622 33.5781C9.35058 34.3836 7.80829 34.2095 6.9043 33.1763V33.1763C5.87974 32.0054 6.07632 30.2086 7.32982 29.2869L22 18.5" stroke="#D36C1C" stroke-width="1.8" stroke-linecap="round"/>
</svg>
