<svg width="85" height="85" viewBox="0 0 85 85" fill="none" xmlns="http://www.w3.org/2000/svg">
<path d="M57.5 54H47" stroke="#D36C1C" stroke-width="1.8" stroke-linecap="round"/>
<path d="M52 49H47" stroke="#D36C1C" stroke-width="1.8" stroke-linecap="round"/>
<path d="M52 44H47" stroke="#D36C1C" stroke-width="1.8" stroke-linecap="round"/>
<path d="M56 39H47" stroke="#D36C1C" stroke-width="1.8" stroke-linecap="round"/>
<path d="M52 34H47" stroke="#D36C1C" stroke-width="1.8" stroke-linecap="round"/>
<path d="M52 29H47" stroke="#D36C1C" stroke-width="1.8" stroke-linecap="round"/>
<path d="M52 24H47" stroke="#D36C1C" stroke-width="1.8" stroke-linecap="round"/>
<path d="M54 19H47" stroke="#D36C1C" stroke-width="1.8" stroke-linecap="round"/>
<path d="M38 68L38 46" stroke="#D36C1C" stroke-width="1.8" stroke-linecap="round"/>
<mask id="path-10-inside-1_2809_988" fill="white">
<path fill-rule="evenodd" clip-rule="evenodd" d="M38 8C35.2386 8 33 10.2386 33 13V57.1994C29.4383 59.0201 27 62.7253 27 67C27 73.0751 31.9249 78 38 78C44.0751 78 49 73.0751 49 67C49 62.7253 46.5617 59.0201 43 57.1994V13C43 10.2386 40.7614 8 38 8Z"/>
</mask>
<path d="M33 57.1994L33.8193 58.8021L34.8 58.3008V57.1994H33ZM43 57.1994H41.2V58.3008L42.1807 58.8021L43 57.1994ZM34.8 13C34.8 11.2327 36.2327 9.8 38 9.8V6.2C34.2445 6.2 31.2 9.24447 31.2 13H34.8ZM34.8 57.1994V13H31.2V57.1994H34.8ZM28.8 67C28.8 63.4274 30.836 60.3272 33.8193 58.8021L32.1807 55.5967C28.0407 57.7131 25.2 62.0232 25.2 67H28.8ZM38 76.2C32.919 76.2 28.8 72.081 28.8 67H25.2C25.2 74.0692 30.9308 79.8 38 79.8V76.2ZM47.2 67C47.2 72.081 43.081 76.2 38 76.2V79.8C45.0692 79.8 50.8 74.0692 50.8 67H47.2ZM42.1807 58.8021C45.164 60.3272 47.2 63.4274 47.2 67H50.8C50.8 62.0232 47.9593 57.7131 43.8193 55.5967L42.1807 58.8021ZM41.2 13V57.1994H44.8V13H41.2ZM38 9.8C39.7673 9.8 41.2 11.2327 41.2 13H44.8C44.8 9.24446 41.7555 6.2 38 6.2V9.8Z" fill="#D36C1C" mask="url(#path-10-inside-1_2809_988)"/>
</svg>
