<svg width="85" height="85" viewBox="0 0 85 85" fill="none" xmlns="http://www.w3.org/2000/svg">
<g clip-path="url(#clip0_2809_925)">
<path d="M57.6517 57.932L74.3604 74.6406" stroke="#D36C1C" stroke-width="1.8" stroke-linecap="round"/>
<path d="M64.0948 51.553L76.3032 54.8242" stroke="#D36C1C" stroke-width="1.8" stroke-linecap="round"/>
<path d="M51.855 64.5689L55.1262 76.7773" stroke="#D36C1C" stroke-width="1.8" stroke-linecap="round"/>
<rect x="22.4092" y="4.56836" width="23.5721" height="7.41824" rx="2.74762" transform="rotate(90 22.4092 4.56836)" stroke="#D36C1C" stroke-width="1.8"/>
<path fill-rule="evenodd" clip-rule="evenodd" d="M44.6881 27.8703C46.1126 26.4458 46.1126 24.1362 44.6881 22.7118L29.5338 7.55743C28.1093 6.13295 25.7997 6.13295 24.3752 7.55743L22.4089 9.52372L22.4089 12.0693L25.648 8.83022C26.3696 8.10868 27.5394 8.10868 28.261 8.83022L43.4153 23.9846C44.1368 24.7061 44.1368 25.8759 43.4153 26.5975L26.3181 43.6947C25.5966 44.4162 24.4267 44.4162 23.7052 43.6947L8.55084 28.5403C7.8293 27.8188 7.8293 26.649 8.55084 25.9274L14.9907 19.4875V16.942L7.27805 24.6546C5.85356 26.0791 5.85356 28.3886 7.27805 29.8131L22.4324 44.9675C23.8569 46.3919 26.1664 46.3919 27.5909 44.9675L44.6881 27.8703Z" fill="#D36C1C"/>
<path d="M59.9257 31.7923C61.6536 32.5986 62.0549 34.8767 60.7066 36.225L35.9456 60.986C34.5974 62.3343 32.3193 61.9329 31.5129 60.2051L25.8256 48.018C25.337 46.971 25.5556 45.7302 26.3726 44.9132L44.6339 26.652C45.4509 25.835 46.6917 25.6164 47.7387 26.105L59.9257 31.7923Z" stroke="#D36C1C" stroke-width="1.8"/>
<path d="M40.9432 55.9903C41.9127 56.9598 43.0637 57.7289 44.3305 58.2536C45.5972 58.7783 46.9549 59.0484 48.326 59.0484C49.6972 59.0484 51.0549 58.7783 52.3216 58.2536C53.5884 57.7289 54.7394 56.9598 55.7089 55.9903C56.6785 55.0208 57.4475 53.8698 57.9722 52.603C58.4969 51.3362 58.767 49.9785 58.767 48.6074C58.767 47.2363 58.4969 45.8786 57.9722 44.6118C57.4475 43.3451 56.6785 42.1941 55.7089 41.2245L48.326 48.6074L40.9432 55.9903Z" stroke="#D36C1C" stroke-width="1.8"/>
</g>
<defs>
<clipPath id="clip0_2809_925">
<rect width="85" height="85" fill="white"/>
</clipPath>
</defs>
</svg>
