<svg width="76" height="103" viewBox="0 0 76 103" fill="none" xmlns="http://www.w3.org/2000/svg">
<path d="M76 58C76 82.8528 58.9868 103 38 103C17.0132 103 0 82.8528 0 58C0 33.1472 17.0132 0 38 0C58.9868 0 76 33.1472 76 58Z" fill="#020202"/>
<ellipse cx="58.2087" cy="49.8045" rx="9" ry="13" transform="rotate(-5.5196 58.2087 49.8045)" fill="white"/>
<ellipse cx="21.8578" cy="26.9354" rx="6.61133" ry="9.5497" transform="rotate(15 21.8578 26.9354)" fill="white"/>
<ellipse cx="25.4464" cy="76.7234" rx="12.5095" ry="14.9741" transform="rotate(-23.523 25.4464 76.7234)" fill="white"/>
<ellipse cx="30.8542" cy="73.9676" rx="16.6866" ry="18.0968" transform="rotate(-11.083 30.8542 73.9676)" fill="#020202"/>
<ellipse cx="26.3768" cy="75.4033" rx="15.6773" ry="16.0328" transform="rotate(-41.9294 26.3768 75.4033)" fill="white"/>
</svg>
