<svg width="21" height="21" viewBox="0 0 21 21" fill="none" xmlns="http://www.w3.org/2000/svg">
<path d="M7.22159 10.1619C7.22159 8.3362 8.70214 6.85575 10.529 6.85575C12.3558 6.85575 13.8372 8.3362 13.8372 10.1619C13.8372 11.9877 12.3558 13.4682 10.529 13.4682C8.70214 13.4682 7.22159 11.9877 7.22159 10.1619ZM5.43325 10.1619C5.43325 12.9746 7.71461 15.2546 10.529 15.2546C13.3434 15.2546 15.6247 12.9746 15.6247 10.1619C15.6247 7.34926 13.3434 5.06927 10.529 5.06927C7.71461 5.06927 5.43325 7.34926 5.43325 10.1619ZM14.6356 4.86735C14.6355 5.10273 14.7053 5.33286 14.836 5.52863C14.9668 5.7244 15.1527 5.87702 15.3703 5.96718C15.5879 6.05735 15.8273 6.08101 16.0583 6.03518C16.2893 5.98936 16.5016 5.87609 16.6682 5.70971C16.8348 5.54334 16.9483 5.33132 16.9943 5.10047C17.0404 4.86963 17.0169 4.63032 16.9268 4.41282C16.8368 4.19531 16.6842 4.00938 16.4884 3.87852C16.2927 3.74767 16.0625 3.67778 15.8269 3.67769H15.8264C15.5107 3.67783 15.208 3.8032 14.9847 4.02626C14.7614 4.24932 14.6359 4.55183 14.6356 4.86735ZM6.51979 18.2348C5.55226 18.1908 5.02638 18.0297 4.6769 17.8936C4.21358 17.7134 3.883 17.4987 3.53543 17.1518C3.18786 16.8049 2.97272 16.4748 2.79314 16.0118C2.6569 15.6627 2.49574 15.137 2.45176 14.17C2.40365 13.1246 2.39404 12.8106 2.39404 10.162C2.39404 7.5135 2.40444 7.20033 2.45176 6.15404C2.49582 5.1871 2.65817 4.66241 2.79314 4.31227C2.97351 3.84922 3.18834 3.51884 3.53543 3.17148C3.88253 2.82412 4.21279 2.6091 4.6769 2.42963C5.02622 2.29348 5.55226 2.13241 6.51979 2.08846C7.56583 2.04037 7.88006 2.03077 10.529 2.03077C13.1779 2.03077 13.4925 2.04117 14.5394 2.08846C15.5069 2.13249 16.0319 2.29475 16.3823 2.42963C16.8456 2.6091 17.1762 2.8246 17.5237 3.17148C17.8713 3.51837 18.0857 3.84922 18.266 4.31227C18.4023 4.66137 18.5634 5.1871 18.6074 6.15404C18.6555 7.20033 18.6651 7.5135 18.6651 10.162C18.6651 12.8106 18.6555 13.1237 18.6074 14.17C18.5633 15.137 18.4014 15.6625 18.266 16.0118C18.0857 16.4748 17.8708 16.8052 17.5237 17.1518C17.1766 17.4984 16.8456 17.7134 16.3823 17.8936C16.0329 18.0298 15.5069 18.1909 14.5394 18.2348C13.4933 18.2829 13.1791 18.2925 10.529 18.2925C7.87886 18.2925 7.56551 18.2829 6.51979 18.2348ZM6.43762 0.304203C5.38117 0.352284 4.65928 0.519697 4.02884 0.764865C3.37594 1.01805 2.82322 1.35771 2.27091 1.90883C1.71859 2.45994 1.3796 3.01319 1.12626 3.66571C0.880946 4.29616 0.713433 5.01723 0.665323 6.07304C0.616419 7.13051 0.605225 7.46859 0.605225 10.1619C0.605225 12.8553 0.616419 13.1934 0.665323 14.2509C0.713433 15.3068 0.880946 16.0277 1.12626 16.6582C1.3796 17.3103 1.71867 17.8642 2.27091 18.4151C2.82315 18.9659 3.37594 19.3051 4.02884 19.559C4.66047 19.8042 5.38117 19.9716 6.43762 20.0197C7.49628 20.0678 7.83401 20.0798 10.529 20.0798C13.224 20.0798 13.5622 20.0686 14.6204 20.0197C15.6769 19.9716 16.3983 19.8042 17.0291 19.559C17.6816 19.3051 18.2347 18.9662 18.7871 18.4151C19.3394 17.864 19.6777 17.3103 19.9317 16.6582C20.177 16.0277 20.3453 15.3067 20.3926 14.2509C20.4408 13.1926 20.452 12.8553 20.452 10.1619C20.452 7.46859 20.4408 7.13051 20.3926 6.07304C20.3445 5.01715 20.177 4.29576 19.9317 3.66571C19.6777 3.01359 19.3385 2.46081 18.7871 1.90883C18.2356 1.35684 17.6816 1.01805 17.0299 0.764865C16.3983 0.519697 15.6768 0.351491 14.6211 0.304203C13.563 0.256121 13.2248 0.244141 10.5298 0.244141C7.8348 0.244141 7.49628 0.255328 6.43762 0.304203Z" fill="#0F0F0F"/>
<path d="M7.22159 10.1619C7.22159 8.3362 8.70214 6.85575 10.529 6.85575C12.3558 6.85575 13.8372 8.3362 13.8372 10.1619C13.8372 11.9877 12.3558 13.4682 10.529 13.4682C8.70214 13.4682 7.22159 11.9877 7.22159 10.1619ZM5.43325 10.1619C5.43325 12.9746 7.71461 15.2546 10.529 15.2546C13.3434 15.2546 15.6247 12.9746 15.6247 10.1619C15.6247 7.34926 13.3434 5.06927 10.529 5.06927C7.71461 5.06927 5.43325 7.34926 5.43325 10.1619ZM14.6356 4.86735C14.6355 5.10273 14.7053 5.33286 14.836 5.52863C14.9668 5.7244 15.1527 5.87702 15.3703 5.96718C15.5879 6.05735 15.8273 6.08101 16.0583 6.03518C16.2893 5.98936 16.5016 5.87609 16.6682 5.70971C16.8348 5.54334 16.9483 5.33132 16.9943 5.10047C17.0404 4.86963 17.0169 4.63032 16.9268 4.41282C16.8368 4.19531 16.6842 4.00938 16.4884 3.87852C16.2927 3.74767 16.0625 3.67778 15.8269 3.67769H15.8264C15.5107 3.67783 15.208 3.8032 14.9847 4.02626C14.7614 4.24932 14.6359 4.55183 14.6356 4.86735ZM6.51979 18.2348C5.55226 18.1908 5.02638 18.0297 4.6769 17.8936C4.21358 17.7134 3.883 17.4987 3.53543 17.1518C3.18786 16.8049 2.97272 16.4748 2.79314 16.0118C2.6569 15.6627 2.49574 15.137 2.45176 14.17C2.40365 13.1246 2.39404 12.8106 2.39404 10.162C2.39404 7.5135 2.40444 7.20033 2.45176 6.15404C2.49582 5.1871 2.65817 4.66241 2.79314 4.31227C2.97351 3.84922 3.18834 3.51884 3.53543 3.17148C3.88253 2.82412 4.21279 2.6091 4.6769 2.42963C5.02622 2.29348 5.55226 2.13241 6.51979 2.08846C7.56583 2.04037 7.88006 2.03077 10.529 2.03077C13.1779 2.03077 13.4925 2.04117 14.5394 2.08846C15.5069 2.13249 16.0319 2.29475 16.3823 2.42963C16.8456 2.6091 17.1762 2.8246 17.5237 3.17148C17.8713 3.51837 18.0857 3.84922 18.266 4.31227C18.4023 4.66137 18.5634 5.1871 18.6074 6.15404C18.6555 7.20033 18.6651 7.5135 18.6651 10.162C18.6651 12.8106 18.6555 13.1237 18.6074 14.17C18.5633 15.137 18.4014 15.6625 18.266 16.0118C18.0857 16.4748 17.8708 16.8052 17.5237 17.1518C17.1766 17.4984 16.8456 17.7134 16.3823 17.8936C16.0329 18.0298 15.5069 18.1909 14.5394 18.2348C13.4933 18.2829 13.1791 18.2925 10.529 18.2925C7.87886 18.2925 7.56551 18.2829 6.51979 18.2348ZM6.43762 0.304203C5.38117 0.352284 4.65928 0.519697 4.02884 0.764865C3.37594 1.01805 2.82322 1.35771 2.27091 1.90883C1.71859 2.45994 1.3796 3.01319 1.12626 3.66571C0.880946 4.29616 0.713433 5.01723 0.665323 6.07304C0.616419 7.13051 0.605225 7.46859 0.605225 10.1619C0.605225 12.8553 0.616419 13.1934 0.665323 14.2509C0.713433 15.3068 0.880946 16.0277 1.12626 16.6582C1.3796 17.3103 1.71867 17.8642 2.27091 18.4151C2.82315 18.9659 3.37594 19.3051 4.02884 19.559C4.66047 19.8042 5.38117 19.9716 6.43762 20.0197C7.49628 20.0678 7.83401 20.0798 10.529 20.0798C13.224 20.0798 13.5622 20.0686 14.6204 20.0197C15.6769 19.9716 16.3983 19.8042 17.0291 19.559C17.6816 19.3051 18.2347 18.9662 18.7871 18.4151C19.3394 17.864 19.6777 17.3103 19.9317 16.6582C20.177 16.0277 20.3453 15.3067 20.3926 14.2509C20.4408 13.1926 20.452 12.8553 20.452 10.1619C20.452 7.46859 20.4408 7.13051 20.3926 6.07304C20.3445 5.01715 20.177 4.29576 19.9317 3.66571C19.6777 3.01359 19.3385 2.46081 18.7871 1.90883C18.2356 1.35684 17.6816 1.01805 17.0299 0.764865C16.3983 0.519697 15.6768 0.351491 14.6211 0.304203C13.563 0.256121 13.2248 0.244141 10.5298 0.244141C7.8348 0.244141 7.49628 0.255328 6.43762 0.304203Z" fill="#0F0F0F"/>
</svg>
