<svg width="20" height="16" viewBox="0 0 20 16" fill="none" xmlns="http://www.w3.org/2000/svg">
<path d="M19.0821 2.35555C18.4824 2.61367 17.8518 2.7934 17.2061 2.89032C17.508 2.83857 17.9522 2.29518 18.129 2.07523C18.3977 1.74346 18.6024 1.36473 18.7328 0.958257C18.7328 0.928068 18.763 0.884942 18.7328 0.863379C18.7176 0.855075 18.7005 0.850723 18.6832 0.850723C18.6659 0.850723 18.6488 0.855075 18.6336 0.863379C17.9325 1.24307 17.1863 1.53287 16.4126 1.72591C16.3856 1.73414 16.3569 1.73488 16.3296 1.72804C16.3022 1.72121 16.2773 1.70705 16.2574 1.68709C16.1971 1.61539 16.1323 1.54768 16.0633 1.4844C15.7477 1.20168 15.3897 0.970293 15.0024 0.798689C14.4795 0.584169 13.9147 0.491265 13.3506 0.526993C12.8033 0.561558 12.269 0.708356 11.7808 0.958257C11.3001 1.22173 10.8777 1.57966 10.5388 2.01054C10.1824 2.45403 9.92501 2.96871 9.78409 3.51996C9.66788 4.04432 9.6547 4.58626 9.74527 5.11564C9.74527 5.20621 9.74527 5.21914 9.66765 5.20621C6.59273 4.75338 4.06984 3.66228 2.0084 1.32052C1.91783 1.21702 1.87039 1.21702 1.79708 1.32052C0.90005 2.68331 1.33563 4.83963 2.45691 5.90485C2.60786 6.04717 2.76311 6.18518 2.92699 6.31456C2.41289 6.27806 1.91134 6.13874 1.45207 5.90485C1.36582 5.84879 1.31838 5.87898 1.31406 5.98248C1.30184 6.12598 1.30184 6.27025 1.31406 6.41375C1.40405 7.10144 1.67506 7.75289 2.0994 8.30149C2.52373 8.85009 3.08615 9.27615 3.72914 9.5361C3.88589 9.60324 4.04922 9.65382 4.21647 9.68704C3.74054 9.78074 3.25241 9.79531 2.77174 9.73017C2.66823 9.7086 2.62942 9.76467 2.66823 9.86386C3.30219 11.5889 4.67792 12.1151 5.68708 12.4083C5.82508 12.4299 5.96309 12.4299 6.11834 12.4644C6.11834 12.4644 6.11834 12.4644 6.09247 12.4903C5.7949 13.0336 4.59167 13.4002 4.03965 13.59C3.03208 13.9519 1.95782 14.0902 0.891425 13.9954C0.723232 13.9695 0.684418 13.9738 0.641292 13.9954C0.598166 14.0169 0.641292 14.0644 0.688731 14.1075C0.904363 14.2498 1.11999 14.3749 1.34425 14.4956C2.01187 14.8598 2.71767 15.149 3.44882 15.3582C7.23532 16.4018 11.4962 15.6342 14.3382 12.8094C16.5722 10.5927 17.3571 7.53503 17.3571 4.47306C17.3571 4.35662 17.4994 4.28761 17.5813 4.22724C18.1465 3.78687 18.6448 3.26681 19.0606 2.68331C19.1326 2.59633 19.1695 2.48559 19.1641 2.3728C19.1641 2.30811 19.1641 2.32105 19.0821 2.35555Z" fill="#0F0F0F"/>
</svg>
