<svg width="21" height="16" viewBox="0 0 21 16" fill="none" xmlns="http://www.w3.org/2000/svg">
<path fill-rule="evenodd" clip-rule="evenodd" d="M18.5472 1.32907C19.4398 1.57012 20.1413 2.27348 20.3785 3.16506C20.81 4.78312 20.81 8.16122 20.81 8.16122C20.81 8.16122 20.81 11.5393 20.3785 13.1574C20.1381 14.0523 19.4365 14.7556 18.5472 14.9934C16.9332 15.426 10.4577 15.426 10.4577 15.426C10.4577 15.426 3.98551 15.426 2.36827 14.9934C1.47567 14.7523 0.7741 14.049 0.53695 13.1574C0.105469 11.5393 0.105469 8.16122 0.105469 8.16122C0.105469 8.16122 0.105469 4.78312 0.53695 3.16506C0.777394 2.27018 1.47896 1.56682 2.36827 1.32907C3.98551 0.896485 10.4577 0.896484 10.4577 0.896484C10.4577 0.896484 16.9332 0.896485 18.5472 1.32907ZM13.7679 8.16122L8.38925 11.2752V5.04729L13.7679 8.16122Z" fill="black"/>
</svg>
