<svg width="16" height="16" viewBox="0 0 16 16" fill="none" xmlns="http://www.w3.org/2000/svg">
<circle cx="8" cy="8" r="8" fill="#4F2DD0"/>
<path fill-rule="evenodd" clip-rule="evenodd" d="M11.5348 5.53986C11.8277 5.24696 11.8277 4.77209 11.5348 4.4792C11.2419 4.1863 10.767 4.1863 10.4742 4.4792L7.99988 6.95347L5.52585 4.47944C5.23295 4.18655 4.75808 4.18655 4.46519 4.47944C4.17229 4.77233 4.17229 5.24721 4.46519 5.5401L6.93922 8.01413L4.46531 10.488C4.17242 10.7809 4.17242 11.2558 4.46531 11.5487C4.7582 11.8416 5.23308 11.8416 5.52597 11.5487L7.99988 9.07479L10.474 11.5489C10.7669 11.8418 11.2418 11.8418 11.5347 11.5489C11.8276 11.2561 11.8276 10.7812 11.5347 10.4883L9.06054 8.01413L11.5348 5.53986Z" fill="white"/>
</svg>
